HIERARCHY
ROOT Hips
{
	OFFSET 0.000000 0.000000 0.000000 
	CHANNELS 6 Xposition Yposition Zposition Yrotation Zrotation Xrotation 
	JOINT Lumbar
	{
		OFFSET 0.000000 0.000000 0.000000 
		CHANNELS 3 Zrotation Xrotation Yrotation
		JOINT Neck
		{
			OFFSET 0.000000 0.445665 0.000000 
			CHANNELS 3 Zrotation Xrotation Yrotation
			End Site
			{
				OFFSET 0.000000 0.227535 0.000000 
			}
		}
		JOINT RightShoulder
		{
			OFFSET 0.019635 0.377685 0.194865 
			CHANNELS 3 Zrotation Xrotation Yrotation
			JOINT RightElbow
			{
				OFFSET 0.000000 -0.243375 0.000000 
				CHANNELS 2 Zrotation Yrotation
				JOINT RightWrist
				{
					OFFSET 0.000000 -0.264825 0.000000 
					CHANNELS 2 Zrotation Xrotation
					End Site
					{
						OFFSET 0.006600 -0.176220 0.000990 
					}
				}
			}
		}
		JOINT LeftShoulder
		{
			OFFSET 0.019635 0.377685 -0.194865 
			CHANNELS 3 Zrotation Xrotation Yrotation
			JOINT LeftElbow
			{
				OFFSET 0.000000 -0.243375 0.000000 
				CHANNELS 2 Zrotation Yrotation
				JOINT LeftWrist
				{
					OFFSET 0.000000 -0.264825 0.000000 
					CHANNELS 2 Zrotation Xrotation
					End Site
					{
						OFFSET 0.006600 -0.176220 -0.000990 
					}
				}
			}
		}
	}
	JOINT RightHip
	{
		OFFSET 0.052140 -0.069960 0.075570 
		CHANNELS 3 Zrotation Xrotation Yrotation
		JOINT RightKnee
		{
			OFFSET 0.000000 -0.402270 0.000000 
			CHANNELS 1 Zrotation
			JOINT RightAnkle
			{
				OFFSET 0.000000 -0.404085 0.000000 
				CHANNELS 3 Zrotation Xrotation Yrotation
				End Site
				{
					OFFSET 0.204105 -0.089430 0.008415 
				}
			}
		}
	}
	JOINT LeftHip
	{
		OFFSET 0.052140 -0.069960 -0.075570 
		CHANNELS 3 Zrotation Xrotation Yrotation
		JOINT LeftKnee
		{
			OFFSET 0.000000 -0.402270 0.000000 
			CHANNELS 1 Zrotation
			JOINT LeftAnkle
			{
				OFFSET 0.000000 -0.404085 0.000000 
				CHANNELS 3 Zrotation Xrotation Yrotation
				End Site
				{
					OFFSET 0.204105 -0.089430 -0.008415 
				}
			}
		}
	}
}
MOTION
Frames: 20
Frame Time: 0.02
0 0.95578 -0 176.18133 0 -4.15067 3.4191 3.66511 -3.08074 -37.55273 1.2233 3.62905 -23.20166 -60.84177 -82.06189 25.72507 54.69685 -25.63275 1.49324 -8.01058 59.47857 87.14684 19.50369 -77.14827 -23.98389 2.23423 -3.52785 4.81325 -6.18016 -7.70818 1.10339 -3.82038 -8.96328 -3.18234 6.27139 7.86243 -6.46525 5.92438 4.82355 8.01326
-0.00016 0.9559 -0.00011 176.03973 0 -4.18132 3.22862 3.57076 -3.2282 -38.02948 1.60101 4.01946 -24.61919 -60.47046 -81.8071 24.94152 53.36815 -25.55743 1.76151 -8.79327 57.83274 87.14684 19.36374 -76.96567 -24.02898 2.21453 -3.53552 4.83879 -6.11024 -7.66962 1.0407 -3.80311 -8.91502 -3.23676 6.29186 7.92175 -6.42679 5.8918 4.84166 8.09299
-0.00033 0.95602 -0.00021 175.89874 0 -4.21173 3.03907 3.47738 -3.37441 -38.50426 1.97538 4.40666 -26.02449 -60.09999 -81.55819 24.16013 52.04988 -25.48162 2.02825 -9.56965 56.19603 87.14683 19.22171 -76.77877 -24.07317 2.19455 -3.54318 4.86401 -6.04065 -7.63116 0.97826 -3.78587 -8.86699 -3.2909 6.31203 7.98102 -6.38858 5.85934 4.85959 8.17215
-0.00049 0.95614 -0.00031 175.75892 0 -4.24161 2.85103 3.38673 -3.51742 -38.97419 2.34072 4.78533 -27.39655 -59.72835 -81.33331 23.3785 50.7627 -25.40228 2.29273 -10.33374 54.57791 87.14683 19.06877 -76.57017 -24.11484 2.17244 -3.5511 4.88838 -5.97178 -7.5924 0.91597 -3.76865 -8.81937 -3.3445 6.33138 8.04054 -6.35083 5.827 4.87694 8.24978
-0.00066 0.95626 -0.00045 175.61307 0 -4.27445 2.65455 3.28135 -3.67781 -39.46783 2.75466 5.20979 -28.94697 -59.36181 -80.98473 22.59665 49.31358 -25.34062 2.57071 -11.16939 52.8591 87.14682 18.97214 -76.47313 -24.17062 2.16064 -3.55792 4.91745 -5.8992 -7.55484 0.85265 -3.75141 -8.76954 -3.40105 6.35527 8.09855 -6.31048 5.79396 4.89729 8.3355
-0.00082 0.95638 -0.00049 175.48002 0 -4.30092 2.47644 3.20739 -3.80095 -39.91217 3.06489 5.53655 -30.11703 -58.98559 -80.89567 21.81706 48.20658 -25.24232 2.81882 -11.84844 51.35649 87.14682 18.75753 -76.14254 -24.19602 2.12774 -3.56688 4.93642 -5.83447 -7.51503 0.79172 -3.73418 -8.72448 -3.45121 6.36941 8.15982 -6.27575 5.7625 4.91133 8.40402
-0.00095 0.9565 -0.00027 175.38053 0 -4.31047 2.34343 3.21988 -3.82369 -40.21726 3.09095 5.59656 -30.24226 -58.56535 -81.56855 21.01381 48.06465 -25.03055 2.99713 -12.13368 50.41884 87.14681 18.19074 -75.11644 -24.13907 2.02743 -3.58387 4.92823 -5.79103 -7.46562 0.73472 -3.71683 -8.69148 -3.48524 6.35718 8.23108 -6.25548 5.73401 4.90726 8.42525
-0.00107 0.95661 5e-05 175.29417 0 -4.3135 2.22998 3.26413 -3.80842 -40.47391 3.01191 5.55757 -29.98157 -58.13844 -82.49612 20.2176 48.26477 -24.78376 3.14321 -12.25304 49.7047 87.14681 17.50939 -73.86407 -24.05107 1.9073 -3.60266 4.90975 -5.75552 -7.4145 0.68057 -3.69952 -8.66348 -3.51256 6.33501 8.30548 -6.24108 5.70735 4.89697 8.42914
-0.00118 0.95672 0.00032 175.20286 0 -4.31907 2.11091 3.29412 -3.80892 -40.75454 2.97951 5.56182 -29.89532 -57.7248 -83.27831 19.43641 48.29435 -24.56081 3.29593 -12.42477 48.90753 87.14681 16.89646 -72.74511 -23.97627 1.80219 -3.61926 4.89548 -5.71662 -7.36633 0.62679 -3.68221 -8.63388 -3.54199 6.31698 8.37794 -6.22466 5.68071 4.88997 8.44078
-0.00133 0.95684 0.0006 175.10734 0 -4.32636 1.9775 3.32352 -3.81563 -41.02501 2.95185 5.57297 -29.81735 -57.26637 -84.18448 18.57781 48.3854 -24.3047 3.4822 -12.6977 48.03067 87.14681 16.21322 -71.49171 -23.90548 1.67215 -3.64162 4.88306 -5.67691 -7.30908 0.56597 -3.6647 -8.60145 -3.5754 6.30043 8.45272 -6.20545 5.65042 4.88095 8.45278
-0.00141 0.95694 0.0009 175.0236 0 -4.32858 1.87928 3.36152 -3.80053 -41.30739 2.88933 5.54682 -29.62498 -56.90168 -84.89422 17.88291 48.43254 -24.10899 3.59122 -12.71529 47.37488 87.14681 15.65089 -70.47145 -23.81875 1.5888 -3.65247 4.86447 -5.64068 -7.27022 0.52052 -3.64776 -8.57611 -3.59893 6.27856 8.52323 -6.1935 5.62824 4.87471 8.46013
-0.00132 0.95696 0.00128 174.97006 0 -4.31794 1.86757 3.417 -3.73317 -41.6161 2.75662 5.43691 -29.25691 -56.78002 -84.98805 17.63108 48.25078 -24.0914 3.49239 -12.11121 47.25718 87.14682 15.43603 -70.09036 -23.69732 1.6438 -3.63057 4.83042 -5.61275 -7.28381 0.51652 -3.63124 -8.56894 -3.59679 6.24355 8.58271 -6.19997 5.62734 4.87721 8.45708
-0.00117 0.95696 0.00168 174.92778 0 -4.30253 1.89172 3.47976 -3.64539 -41.94236 2.59246 5.29381 -28.77742 -56.75631 -84.87747 17.54508 48.01819 -24.13522 3.31741 -11.24703 47.3575 87.14683 15.34957 -69.96232 -23.56041 1.74581 -3.59709 4.79072 -5.58789 -7.31582 0.52795 -3.61551 -8.56878 -3.58492 6.20373 8.63754 -6.21365 5.63467 4.8828 8.45026
-0.00104 0.95696 0.00207 174.87976 0 -4.2896 1.90323 3.53823 -3.5679 -42.27205 2.44239 5.16917 -28.32027 -56.69901 -84.86789 17.38788 47.82369 -24.14916 3.17887 -10.47494 47.36957 87.14685 15.21371 -69.75841 -23.4297 1.82307 -3.56934 4.75422 -5.56126 -7.3385 0.53248 -3.60022 -8.56548 -3.5776 6.16666 8.69346 -6.2241 5.63863 4.88724 8.44638
-0.00092 0.95697 0.00248 174.83474 0 -4.27509 1.8998 3.60201 -3.48499 -42.54996 2.28926 5.02685 -27.97347 -56.59478 -84.83316 17.21333 47.57502 -24.17044 3.03141 -9.81087 47.34376 87.14686 15.03576 -69.38365 -23.30224 1.91314 -3.53988 4.7146 -5.53664 -7.36488 0.53659 -3.5816 -8.56207 -3.56968 6.12676 8.75371 -6.23436 5.64102 4.89038 8.43681
-0.00077 0.95696 0.00284 174.78606 0 -4.26286 1.93597 3.65596 -3.40879 -42.94293 2.1367 4.91474 -27.36992 -56.61238 -84.79872 17.11426 47.42621 -24.19119 2.88491 -8.85775 47.44565 87.14687 14.97783 -69.42497 -23.16373 1.98892 -3.51097 4.68036 -5.50828 -7.3883 0.54529 -3.57004 -8.56063 -3.56056 6.09186 8.80391 -6.24689 5.6487 4.89704 8.4383
-0.0006 0.95689 0.00306 174.72392 0 -4.25769 2.07077 3.68168 -3.35849 -43.62905 1.99141 4.89494 -26.13304 -56.93595 -84.8163 17.1831 47.53307 -24.19764 2.75897 -7.20866 47.84618 87.14687 15.21733 -70.57921 -23.00714 2.00544 -3.48846 4.66165 -5.47054 -7.39598 0.56213 -3.57833 -8.56178 -3.55226 6.07095 8.8264 -6.26173 5.66821 4.91281 8.47242
-0.00041 0.9568 0.00322 174.65784 0 -4.25508 2.24441 3.69696 -3.31566 -44.43426 1.84859 4.90717 -24.63443 -57.3798 -84.84 17.32238 47.74625 -24.20098 2.63662 -5.27133 48.3665 87.14684 15.57411 -72.13985 -22.83836 2.00758 -3.46654 4.64872 -5.42869 -7.4006 0.58318 -3.59362 -8.56487 -3.54277 6.05546 8.83905 -6.27894 5.69286 4.93201 8.51764
-0.00022 0.95672 0.0034 174.59377 0 -4.25161 2.40152 3.71641 -3.26771 -45.19862 1.70665 4.90457 -23.22601 -57.77306 -84.85845 17.42906 47.9307 -24.20483 2.51365 -3.4415 48.8315 87.14685 15.87968 -73.49845 -22.66985 2.02185 -3.44298 4.63364 -5.38747 -7.40865 0.60281 -3.60535 -8.5678 -3.5327 6.03817 8.85702 -6.29651 5.71567 4.94956 8.55713
-6e-05 0.95664 0.00359 174.52879 0 -4.24671 2.55535 3.73857 -3.22522 -45.90801 1.55556 4.90141 -21.93529 -58.15329 -84.87917 17.54309 48.03206 -24.21563 2.38497 -1.70158 49.30874 87.14683 16.18146 -74.93857 -22.52367 2.01416 -3.42471 4.61635 -5.35118 -7.4088 0.62097 -3.61864 -8.56795 -3.52703 6.01791 8.8716 -6.30841 5.73677 4.9676 8.59948
